<svg width="300" height="66" viewBox="0 0 300 66" fill="none" xmlns="http://www.w3.org/2000/svg">
<path fill-rule="evenodd" clip-rule="evenodd" d="M12.7335 48.9582L20.0098 41.6485L20.68 42.5141C21.4459 43.4759 22.3076 44.3415 23.265 45.111C24.2224 45.8804 25.3713 46.5537 26.5202 47.1308C28.5307 47.9964 30.637 48.4773 32.8391 48.4773C39.2537 48.4773 44.9981 44.4377 47.2959 38.4745L47.4874 37.8974H55.0509L54.7637 39.0516C52.0829 48.9582 43.0833 55.787 32.8391 55.787C28.9137 55.787 25.0841 54.8252 21.6374 52.8054C20.68 52.2283 19.7226 51.6513 18.8609 50.978L11.7761 58.0954L11.1059 57.5183C10.0528 56.6527 9.19111 55.6908 8.2337 54.6329C7.37204 53.5749 6.51037 52.5169 5.74444 51.4589C2.01056 45.9766 0 39.5325 0 32.896C0 23.278 4.21259 14.1408 11.4889 7.88907L12.3506 7.11963L15.9887 13.3714L15.4143 13.9485C10.1485 18.8537 7.18055 25.6825 7.18055 32.896C7.18055 37.8013 8.52092 42.5141 11.1059 46.6499C11.6804 47.5155 12.1591 48.2849 12.7335 48.9582Z" fill="white"/>
<path fill-rule="evenodd" clip-rule="evenodd" d="M44.712 22.8911C41.744 19.3325 37.4357 17.3127 32.8401 17.3127C31.9784 17.3127 31.2125 17.4088 30.3509 17.505L29.7764 17.6012L25.9468 11.0609L27.0957 10.7724C28.9147 10.2915 30.8296 10.0991 32.7444 10.0991C39.3505 10.0991 45.4779 12.8884 49.7862 17.8898C50.7436 18.9477 51.5095 20.0057 52.1797 21.2561L52.5627 21.9293L47.1055 27.4116L46.7225 25.9689C46.2438 24.9109 45.4779 23.853 44.712 22.8911Z" fill="white"/>
<path fill-rule="evenodd" clip-rule="evenodd" d="M22.5945 9.23328L27.7645 18.1781L26.8071 18.5628C25.6582 19.0437 24.6051 19.717 23.6477 20.3902C22.5945 21.1597 21.7329 22.0253 20.8712 22.9871C18.5734 25.7763 17.4245 29.2389 17.4245 32.7975C17.4245 35.0097 17.9032 37.1257 18.7649 39.1455L19.0521 39.7225L13.5949 45.2048L13.0205 44.1469C11.1056 40.6843 10.0525 36.8371 10.0525 32.8937C10.0525 26.8343 12.3503 21.1597 16.5629 16.8316C17.3288 16.0621 18.1905 15.2927 19.0521 14.6194L14.0736 5.86696L14.8395 5.38605C15.9884 4.61661 17.1373 3.94335 18.2862 3.36626C19.5308 2.78918 20.7755 2.21209 22.0201 1.82737C25.4667 0.577023 29.1049 -6.10352e-05 32.8388 -6.10352e-05C42.0299 -6.10352e-05 50.7423 3.84716 56.9654 10.676C57.9229 11.6378 58.6888 12.6958 59.5504 13.8499L60.0291 14.5232L54.9549 19.6208L54.2847 18.659C53.6145 17.601 52.8486 16.543 51.9869 15.6774C47.0084 10.1951 40.1151 7.11731 32.8388 7.11731C30.2538 7.11731 27.6688 7.50203 25.1795 8.27147C24.3179 8.56002 23.4562 8.84856 22.5945 9.23328Z" fill="white"/>
<path fill-rule="evenodd" clip-rule="evenodd" d="M58.4026 35.7807H28.723V28.2786H65.3917L65.4875 29.1443C65.5832 30.3946 65.6789 31.6449 65.6789 32.8953C65.6789 33.5686 65.6789 34.2418 65.5832 34.9151C64.5301 52.2276 50.1689 65.7891 32.9356 65.7891C26.3295 65.7891 19.9149 63.7693 14.4577 60.0182L13.5002 59.345L18.5745 54.2474L19.2447 54.6321C23.3615 57.229 28.0528 58.5755 32.9356 58.5755C45.9564 58.6717 56.9665 48.7651 58.4026 35.7807Z" fill="white"/>
<path fill-rule="evenodd" clip-rule="evenodd" d="M78.0283 63.0005H119.005V55.4984H86.5492V2.79144H78.0283V63.0005Z" fill="white"/>
<path fill-rule="evenodd" clip-rule="evenodd" d="M132.025 55.4976V62.9997H175.491V55.4976H140.546H132.025Z" fill="white"/>
<path fill-rule="evenodd" clip-rule="evenodd" d="M140.546 10.2935H149.929V2.79144H132.025V10.2935H140.546Z" fill="white"/>
<path fill-rule="evenodd" clip-rule="evenodd" d="M140.546 36.0695H161.896V28.7598H140.546H132.025V36.0695H140.546Z" fill="white"/>
<path fill-rule="evenodd" clip-rule="evenodd" d="M268.17 2.79144L251.703 52.0359L235.14 2.79144H227.289L210.439 51.7474L194.259 2.79144H185.355L205.46 63.0005H214.556L230.927 14.9102L247.299 63.0005H256.299L276.308 2.79144H268.17Z" fill="white"/>
<path d="M285.688 2.58301H283.914V7.47363H282.934V2.58301H281.176V1.78613H285.688V2.58301ZM287.719 1.78613L289.359 6.14551L290.996 1.78613H292.273V7.47363H291.289V5.59863L291.387 3.09082L289.707 7.47363H289L287.324 3.09473L287.422 5.59863V7.47363H286.438V1.78613H287.719Z" fill="white"/>
</svg>
